<svg id="Layer_1" data-name="Layer 1" xmlns="http://www.w3.org/2000/svg" viewBox="0 0 391.06 72.99">
  <defs>
    <style>.cls-1{fill:#fff;}</style>
  </defs>
  <rect class="cls-1" x="80.4" width="27.4" height="72.99" />
  <path class="cls-1" d="M441.1,261H418.64a20.29,20.29,0,0,0-12.15,4.77,11.6,11.6,0,0,0-9.38-4.77H374.66a20,20,0,0,0-9.91,3.12V261h-27.4v73h27.4V276.87a4.45,4.45,0,0,1,4.45-4.45h7.68a4.45,4.45,0,0,1,4.45,4.45V334h27.4V276.87a4.45,4.45,0,0,1,4.45-4.45h7.68a4.45,4.45,0,0,1,4.45,4.45V334h27.4V272.65A11.61,11.61,0,0,0,441.1,261Z" transform="translate(-225.1 -261.04)" />
  <path class="cls-1" d="M592.76,261H570.3a19.88,19.88,0,0,0-9.91,3.14V261H533v73h27.4V276.87a4.45,4.45,0,0,1,4.45-4.45h7.68a4.45,4.45,0,0,1,4.45,4.45V334h27.4V272.65A11.61,11.61,0,0,0,592.76,261Z" transform="translate(-225.1 -261.04)" />
  <path class="cls-1" d="M289.44,334a11.61,11.61,0,0,0,11.61-11.61V304.64A11.61,11.61,0,0,0,289.44,293H257a4.46,4.46,0,0,1-4.45-4.46v-11.7a4.45,4.45,0,0,1,4.45-4.45H269.2a4.45,4.45,0,0,1,4.45,4.45v9.93H301l.08-14.15A11.61,11.61,0,0,0,289.44,261H236.71a11.61,11.61,0,0,0-11.61,11.61v17.77A11.61,11.61,0,0,0,236.71,302H269.2a4.45,4.45,0,0,1,4.45,4.45v11.7a4.46,4.46,0,0,1-4.45,4.46H257a4.46,4.46,0,0,1-4.45-4.46v-9.93H225.17l-.07,14.16A11.61,11.61,0,0,0,236.71,334Z" transform="translate(-225.1 -261.04)" />
  <path class="cls-1" d="M468.77,334a11.61,11.61,0,0,1-11.61-11.61V272.65A11.61,11.61,0,0,1,468.77,261h48.16a11.61,11.61,0,0,1,11.61,11.61v49.76A11.61,11.61,0,0,1,516.93,334Zm32.37-57.15a4.45,4.45,0,0,0-4.45-4.45H489a4.45,4.45,0,0,0-4.45,4.45v41.31a4.46,4.46,0,0,0,4.45,4.46h7.68a4.46,4.46,0,0,0,4.45-4.46Z" transform="translate(-225.1 -261.04)" />
  <path class="cls-1" d="M616.16,328.86a5.24,5.24,0,1,1-5.23-5.11A5.13,5.13,0,0,1,616.16,328.86Zm-9.18,0a4,4,0,0,0,4,4.07,3.9,3.9,0,0,0,3.89-4,3.94,3.94,0,1,0-7.87,0Zm3.14,2.67h-1.18v-5.1a10.58,10.58,0,0,1,2-.16,3.14,3.14,0,0,1,1.77.38,1.42,1.42,0,0,1,.5,1.12,1.31,1.31,0,0,1-1.06,1.18V329a1.52,1.52,0,0,1,.94,1.25,3.61,3.61,0,0,0,.37,1.27h-1.28a4.64,4.64,0,0,1-.4-1.24c-.09-.56-.4-.81-1.06-.81h-.56Zm0-2.89h.56c.66,0,1.19-.22,1.19-.75s-.35-.77-1.09-.77a3.05,3.05,0,0,0-.66.06Z" transform="translate(-225.1 -261.04)" />
</svg>